<svg xmlns="http://www.w3.org/2000/svg" width="65" height="68" viewBox="0 0 65 68">
    <g fill="none" fill-rule="evenodd" stroke="#222" stroke-linecap="round" stroke-width="2.5">
        <path stroke-linejoin="round" d="M1.25 53.947v2.72V43.95c0-4.008 3.855-5.824 6.25-8.69.361-.433 1.25-3.779 1.25-3.779m25-17.63h12.5c2.942 0 4.188.746 5 2.52.812 1.772 6.25 18.888 6.25 18.888.903 2.129 5.642 4.07 6.11 8.601.314 3 0 12.807 0 12.807H1.25"/>
        <path stroke-linejoin="round" d="M61.25 56.667v7.14c0 1.622-1.197 2.934-2.674 2.934h-7.152c-1.477 0-2.674-1.312-2.674-2.935v-7.14M16.25 56.667v7.14c0 1.622-1.197 2.934-2.674 2.934H6.424c-1.477 0-2.674-1.312-2.674-2.935v-7.14M43.75 47.852l10-1.26M20 47.852l-10-1.26"/>
        <path d="M3.75 31.483l3.75 1.256M61.25 31.483l-3.75 1.256M26.25 34h25"/>
        <g stroke-linejoin="round">
            <path fill="#FFB213" d="M17.5 34S6.25 20.148 6.25 13.852C6.25 7.556 10 1.259 17.5 1.259c7.502 0 11.25 6.297 11.25 12.593S17.5 34 17.5 34z"/>
            <path d="M17.5 16.37c-2.072 0-3.75-1.691-3.75-3.777 0-2.087 1.678-3.778 3.75-3.778 2.071 0 3.75 1.691 3.75 3.778 0 2.086-1.679 3.777-3.75 3.777z"/>
        </g>
    </g>
</svg>
