<svg xmlns="http://www.w3.org/2000/svg" width="56" height="68" viewBox="0 0 56 68">
    <g fill="none" fill-rule="evenodd" stroke="#222" stroke-width="2.5">
        <g fill-rule="nonzero">
            <path fill="#FFB213" d="M51.883 49.899h-.328c-.04 0-.077-.03-.09-.084a11.272 11.272 0 0 0-1.332-3.216c-.03-.047-.024-.095.004-.124l.23-.229c.755-.753 1.58-1.271.824-2.024l-2.547-2.547c-.755-.753-1.211.14-1.966.893l-.23.229c-.028.028-.075.033-.124.004a11.32 11.32 0 0 0-3.224-1.328c-.054-.013-.084-.05-.084-.089v-.33c-.03-1.378.298-1.927-.74-1.927h-3.82c-1.068 0-.656.863-.656 1.928v.328c0 .04-.03.077-.085.09a11.31 11.31 0 0 0-3.223 1.328c-.048.029-.096.024-.123-.004l-.23-.23c-.755-.752-1.297-1.645-2.051-.892l-2.548 2.547c-.755.753.155 1.271.91 2.024l.23.229c.028.029.033.077.004.125a11.262 11.262 0 0 0-1.332 3.215c-.013.054-.05.084-.089.084h-.33c-.276 0-1.933-.398-1.933.69v3.821c0 1.065.865.691 1.933.691h.329c.04 0 .077.03.09.083a11.272 11.272 0 0 0 1.332 3.216c.029.047.024.096-.005.125l-.229.227c-.755.754-1.665 1.273-.91 2.026l2.548 2.547c.754.753 1.296-.14 2.05-.894l.23-.228c.028-.028.076-.033.124-.004.995.603 2.08 1.051 3.225 1.328.054.013.083.05.083.088v.33c.033 1.357-.085 1.928.655 1.928h3.821c1.068 0 .74-.864.74-1.928v-.329c0-.039.031-.077.086-.09a11.31 11.31 0 0 0 3.223-1.328c.047-.028.096-.023.124.005l.23.228c.754.753 1.21 1.647 1.965.894l2.547-2.547c.755-.753-.07-1.272-.824-2.025l-.23-.23c-.028-.027-.033-.076-.004-.123a11.254 11.254 0 0 0 1.332-3.216c.012-.053.05-.083.088-.083h.33c1.288 0 1.934.287 1.934-.69V50.59c0-1.065-.866-.691-1.934-.691z"/>
            <path d="M46.104 52.5a5.731 5.731 0 1 0-5.731 5.731c1.413 0 5.73-1.042 5.73-5.731z"/>
        </g>
        <g stroke-linecap="round" stroke-linejoin="round">
            <path d="M20.783 58.75H3.76a2.502 2.502 0 0 1-2.496-2.503V17.5L20.211 1.25h24.03a2.5 2.5 0 0 1 2.496 2.5v29.02"/>
            <path d="M18.947 2.5v13.747a2.507 2.507 0 0 1-2.494 2.503H2.526"/>
        </g>
    </g>
</svg>
